<mxfile host="app.diagrams.net" agent="Mozilla/5.0 (Windows NT 10.0; Win64; x64) AppleWebKit/537.36 (KHTML, like Gecko) Chrome/140.0.0.0 Safari/537.36" version="28.2.5">
  <diagram name="Page-1" id="vsy24cWiBwHsWvMP_Hj8">
    <mxGraphModel dx="872" dy="473" grid="1" gridSize="10" guides="1" tooltips="1" connect="1" arrows="1" fold="1" page="1" pageScale="1" pageWidth="850" pageHeight="1100" math="0" shadow="0">
      <root>
        <mxCell id="0" />
        <mxCell id="1" parent="0" />
        <mxCell id="AX6LwZFsLZ5g7KBsp-x0-3" value="plan" style="rounded=0;whiteSpace=wrap;html=1;" vertex="1" parent="1">
          <mxGeometry x="390" y="230" width="120" height="60" as="geometry" />
        </mxCell>
        <mxCell id="AX6LwZFsLZ5g7KBsp-x0-7" style="edgeStyle=orthogonalEdgeStyle;rounded=0;orthogonalLoop=1;jettySize=auto;html=1;exitX=0.5;exitY=1;exitDx=0;exitDy=0;entryX=0.442;entryY=-0.033;entryDx=0;entryDy=0;entryPerimeter=0;" edge="1" parent="1" source="AX6LwZFsLZ5g7KBsp-x0-3">
          <mxGeometry relative="1" as="geometry">
            <mxPoint x="449.03999999999996" y="328.02" as="targetPoint" />
          </mxGeometry>
        </mxCell>
        <mxCell id="AX6LwZFsLZ5g7KBsp-x0-25" value="" style="edgeStyle=orthogonalEdgeStyle;rounded=0;orthogonalLoop=1;jettySize=auto;html=1;" edge="1" parent="1" source="AX6LwZFsLZ5g7KBsp-x0-9" target="AX6LwZFsLZ5g7KBsp-x0-11">
          <mxGeometry relative="1" as="geometry" />
        </mxCell>
        <mxCell id="AX6LwZFsLZ5g7KBsp-x0-9" value="build" style="rounded=1;whiteSpace=wrap;html=1;" vertex="1" parent="1">
          <mxGeometry x="390" y="470" width="120" height="60" as="geometry" />
        </mxCell>
        <mxCell id="AX6LwZFsLZ5g7KBsp-x0-14" value="" style="edgeStyle=orthogonalEdgeStyle;rounded=0;orthogonalLoop=1;jettySize=auto;html=1;" edge="1" parent="1" source="AX6LwZFsLZ5g7KBsp-x0-11" target="AX6LwZFsLZ5g7KBsp-x0-13">
          <mxGeometry relative="1" as="geometry" />
        </mxCell>
        <mxCell id="AX6LwZFsLZ5g7KBsp-x0-11" value="test" style="rounded=1;whiteSpace=wrap;html=1;" vertex="1" parent="1">
          <mxGeometry x="370" y="560" width="120" height="60" as="geometry" />
        </mxCell>
        <mxCell id="AX6LwZFsLZ5g7KBsp-x0-17" value="" style="edgeStyle=orthogonalEdgeStyle;rounded=0;orthogonalLoop=1;jettySize=auto;html=1;" edge="1" parent="1" source="AX6LwZFsLZ5g7KBsp-x0-13" target="AX6LwZFsLZ5g7KBsp-x0-16">
          <mxGeometry relative="1" as="geometry" />
        </mxCell>
        <mxCell id="AX6LwZFsLZ5g7KBsp-x0-13" value="Release" style="whiteSpace=wrap;html=1;rounded=1;" vertex="1" parent="1">
          <mxGeometry x="370" y="700" width="120" height="60" as="geometry" />
        </mxCell>
        <mxCell id="AX6LwZFsLZ5g7KBsp-x0-21" value="" style="edgeStyle=orthogonalEdgeStyle;rounded=0;orthogonalLoop=1;jettySize=auto;html=1;" edge="1" parent="1" source="AX6LwZFsLZ5g7KBsp-x0-16" target="AX6LwZFsLZ5g7KBsp-x0-20">
          <mxGeometry relative="1" as="geometry" />
        </mxCell>
        <mxCell id="AX6LwZFsLZ5g7KBsp-x0-16" value="Deployee" style="rounded=1;whiteSpace=wrap;html=1;" vertex="1" parent="1">
          <mxGeometry x="370" y="810" width="120" height="60" as="geometry" />
        </mxCell>
        <mxCell id="AX6LwZFsLZ5g7KBsp-x0-23" value="" style="edgeStyle=orthogonalEdgeStyle;rounded=0;orthogonalLoop=1;jettySize=auto;html=1;" edge="1" parent="1" source="AX6LwZFsLZ5g7KBsp-x0-20" target="AX6LwZFsLZ5g7KBsp-x0-22">
          <mxGeometry relative="1" as="geometry" />
        </mxCell>
        <mxCell id="AX6LwZFsLZ5g7KBsp-x0-20" value="Operate" style="rounded=1;whiteSpace=wrap;html=1;" vertex="1" parent="1">
          <mxGeometry x="370" y="910" width="120" height="60" as="geometry" />
        </mxCell>
        <mxCell id="AX6LwZFsLZ5g7KBsp-x0-22" value="Monitor" style="rounded=1;whiteSpace=wrap;html=1;" vertex="1" parent="1">
          <mxGeometry x="370" y="1010" width="120" height="60" as="geometry" />
        </mxCell>
        <mxCell id="AX6LwZFsLZ5g7KBsp-x0-28" value="" style="edgeStyle=orthogonalEdgeStyle;rounded=0;orthogonalLoop=1;jettySize=auto;html=1;" edge="1" parent="1" source="AX6LwZFsLZ5g7KBsp-x0-27" target="AX6LwZFsLZ5g7KBsp-x0-9">
          <mxGeometry relative="1" as="geometry" />
        </mxCell>
        <mxCell id="AX6LwZFsLZ5g7KBsp-x0-27" value="Develop" style="rounded=1;whiteSpace=wrap;html=1;" vertex="1" parent="1">
          <mxGeometry x="390" y="320" width="120" height="60" as="geometry" />
        </mxCell>
      </root>
    </mxGraphModel>
  </diagram>
</mxfile>
